<mxfile host="app.diagrams.net" agent="Mozilla/5.0 (Windows NT 10.0; Win64; x64) AppleWebKit/537.36 (KHTML, like Gecko) Chrome/141.0.0.0 Safari/537.36" version="28.2.6">
  <diagram name="Page-1" id="1Rbgn6Gvv_2gU2d9HREr">
    <mxGraphModel dx="1442" dy="996" grid="1" gridSize="10" guides="1" tooltips="1" connect="1" arrows="1" fold="1" page="0" pageScale="1.5" pageWidth="827" pageHeight="1169" math="0" shadow="0">
      <root>
        <mxCell id="0" />
        <mxCell id="1" parent="0" />
        <mxCell id="UHj80bBRcelPe-L20sRG-1" value="" style="rounded=0;whiteSpace=wrap;html=1;fillColor=none;dashed=1;" parent="1" vertex="1">
          <mxGeometry x="-80" y="100" width="160" height="410" as="geometry" />
        </mxCell>
        <mxCell id="UHj80bBRcelPe-L20sRG-5" value="" style="rounded=0;whiteSpace=wrap;html=1;fillColor=none;strokeColor=#d79b00;" parent="1" vertex="1">
          <mxGeometry x="160" y="100" width="160" height="410" as="geometry" />
        </mxCell>
        <mxCell id="UHj80bBRcelPe-L20sRG-8" value="" style="image;html=1;image=img/lib/clip_art/general/Full_Folder_128x128.png" parent="1" vertex="1">
          <mxGeometry x="-40" y="170" width="80" height="50" as="geometry" />
        </mxCell>
        <mxCell id="UHj80bBRcelPe-L20sRG-9" value="" style="image;html=1;image=img/lib/clip_art/general/Full_Folder_128x128.png" parent="1" vertex="1">
          <mxGeometry x="-40" y="350" width="80" height="50" as="geometry" />
        </mxCell>
        <mxCell id="UHj80bBRcelPe-L20sRG-10" value="ERP" style="text;html=1;align=center;verticalAlign=middle;whiteSpace=wrap;rounded=0;" parent="1" vertex="1">
          <mxGeometry x="-30" y="400" width="60" height="30" as="geometry" />
        </mxCell>
        <mxCell id="UHj80bBRcelPe-L20sRG-11" value="CRM" style="text;html=1;align=center;verticalAlign=middle;whiteSpace=wrap;rounded=0;" parent="1" vertex="1">
          <mxGeometry x="-30" y="220" width="60" height="30" as="geometry" />
        </mxCell>
        <mxCell id="UHj80bBRcelPe-L20sRG-12" value="" style="rounded=1;whiteSpace=wrap;html=1;fillColor=#ffe6cc;strokeColor=none;" parent="1" vertex="1">
          <mxGeometry x="180" y="130" width="120" height="30" as="geometry" />
        </mxCell>
        <mxCell id="C-VEYlkBxE4wwwfqTN62-22" style="edgeStyle=orthogonalEdgeStyle;rounded=0;orthogonalLoop=1;jettySize=auto;html=1;entryX=0;entryY=0.5;entryDx=0;entryDy=0;" parent="1" source="UHj80bBRcelPe-L20sRG-13" target="C-VEYlkBxE4wwwfqTN62-3" edge="1">
          <mxGeometry relative="1" as="geometry" />
        </mxCell>
        <mxCell id="UHj80bBRcelPe-L20sRG-13" value="" style="rounded=1;whiteSpace=wrap;html=1;fillColor=#ffe6cc;strokeColor=none;" parent="1" vertex="1">
          <mxGeometry x="180" y="230" width="120" height="30" as="geometry" />
        </mxCell>
        <mxCell id="C-VEYlkBxE4wwwfqTN62-21" style="edgeStyle=orthogonalEdgeStyle;rounded=0;orthogonalLoop=1;jettySize=auto;html=1;" parent="1" source="UHj80bBRcelPe-L20sRG-14" target="C-VEYlkBxE4wwwfqTN62-4" edge="1">
          <mxGeometry relative="1" as="geometry" />
        </mxCell>
        <mxCell id="UHj80bBRcelPe-L20sRG-14" value="" style="rounded=1;whiteSpace=wrap;html=1;fillColor=#ffe6cc;strokeColor=none;" parent="1" vertex="1">
          <mxGeometry x="180" y="180" width="120" height="30" as="geometry" />
        </mxCell>
        <mxCell id="UHj80bBRcelPe-L20sRG-15" value="" style="rounded=1;whiteSpace=wrap;html=1;fillColor=#ffe6cc;strokeColor=none;" parent="1" vertex="1">
          <mxGeometry x="180" y="370" width="120" height="30" as="geometry" />
        </mxCell>
        <mxCell id="C-VEYlkBxE4wwwfqTN62-27" style="edgeStyle=orthogonalEdgeStyle;rounded=0;orthogonalLoop=1;jettySize=auto;html=1;entryX=0;entryY=0.75;entryDx=0;entryDy=0;" parent="1" source="UHj80bBRcelPe-L20sRG-16" target="C-VEYlkBxE4wwwfqTN62-6" edge="1">
          <mxGeometry relative="1" as="geometry" />
        </mxCell>
        <mxCell id="UHj80bBRcelPe-L20sRG-16" value="" style="rounded=1;whiteSpace=wrap;html=1;fillColor=#ffe6cc;strokeColor=none;" parent="1" vertex="1">
          <mxGeometry x="180" y="410" width="120" height="30" as="geometry" />
        </mxCell>
        <mxCell id="C-VEYlkBxE4wwwfqTN62-26" style="edgeStyle=orthogonalEdgeStyle;rounded=0;orthogonalLoop=1;jettySize=auto;html=1;entryX=0;entryY=0.5;entryDx=0;entryDy=0;" parent="1" source="UHj80bBRcelPe-L20sRG-17" target="C-VEYlkBxE4wwwfqTN62-7" edge="1">
          <mxGeometry relative="1" as="geometry" />
        </mxCell>
        <mxCell id="UHj80bBRcelPe-L20sRG-17" value="" style="rounded=1;whiteSpace=wrap;html=1;fillColor=#ffe6cc;strokeColor=none;" parent="1" vertex="1">
          <mxGeometry x="180" y="320" width="120" height="30" as="geometry" />
        </mxCell>
        <mxCell id="UHj80bBRcelPe-L20sRG-18" value="crm_prd_info" style="text;html=1;align=center;verticalAlign=middle;whiteSpace=wrap;rounded=0;fillColor=#ffe6cc;strokeColor=none;" parent="1" vertex="1">
          <mxGeometry x="210" y="180" width="60" height="30" as="geometry" />
        </mxCell>
        <mxCell id="C-VEYlkBxE4wwwfqTN62-20" style="edgeStyle=orthogonalEdgeStyle;rounded=0;orthogonalLoop=1;jettySize=auto;html=1;entryX=0;entryY=0.5;entryDx=0;entryDy=0;" parent="1" source="UHj80bBRcelPe-L20sRG-19" target="C-VEYlkBxE4wwwfqTN62-2" edge="1">
          <mxGeometry relative="1" as="geometry" />
        </mxCell>
        <mxCell id="UHj80bBRcelPe-L20sRG-19" value="crm_cust_info" style="text;html=1;align=center;verticalAlign=middle;whiteSpace=wrap;rounded=0;fillColor=#ffe6cc;strokeColor=none;" parent="1" vertex="1">
          <mxGeometry x="185" y="130" width="110" height="30" as="geometry" />
        </mxCell>
        <mxCell id="UHj80bBRcelPe-L20sRG-20" value="crm_sales_details" style="text;html=1;align=center;verticalAlign=middle;whiteSpace=wrap;rounded=0;fillColor=#ffe6cc;strokeColor=none;" parent="1" vertex="1">
          <mxGeometry x="210" y="230" width="60" height="30" as="geometry" />
        </mxCell>
        <mxCell id="UHj80bBRcelPe-L20sRG-21" value="erp_px_cat_g1v2" style="text;html=1;align=center;verticalAlign=middle;whiteSpace=wrap;rounded=0;fillColor=#ffe6cc;strokeColor=none;" parent="1" vertex="1">
          <mxGeometry x="210" y="410" width="60" height="30" as="geometry" />
        </mxCell>
        <mxCell id="UHj80bBRcelPe-L20sRG-22" value="erp_loc_a101" style="text;html=1;align=center;verticalAlign=middle;whiteSpace=wrap;rounded=0;fillColor=#ffe6cc;strokeColor=none;" parent="1" vertex="1">
          <mxGeometry x="210" y="370" width="60" height="30" as="geometry" />
        </mxCell>
        <mxCell id="UHj80bBRcelPe-L20sRG-23" value="erp_cust_az12" style="text;html=1;align=center;verticalAlign=middle;whiteSpace=wrap;rounded=0;fillColor=#ffe6cc;strokeColor=none;" parent="1" vertex="1">
          <mxGeometry x="210" y="320" width="60" height="30" as="geometry" />
        </mxCell>
        <mxCell id="UHj80bBRcelPe-L20sRG-24" style="edgeStyle=orthogonalEdgeStyle;rounded=0;orthogonalLoop=1;jettySize=auto;html=1;exitX=0.5;exitY=1;exitDx=0;exitDy=0;fillColor=#ffe6cc;strokeColor=none;" parent="1" source="UHj80bBRcelPe-L20sRG-21" target="UHj80bBRcelPe-L20sRG-21" edge="1">
          <mxGeometry relative="1" as="geometry" />
        </mxCell>
        <mxCell id="UHj80bBRcelPe-L20sRG-30" value="" style="edgeStyle=elbowEdgeStyle;elbow=horizontal;endArrow=classic;html=1;curved=0;rounded=0;endSize=8;startSize=8;entryX=0;entryY=0.5;entryDx=0;entryDy=0;" parent="1" target="UHj80bBRcelPe-L20sRG-12" edge="1">
          <mxGeometry width="50" height="50" relative="1" as="geometry">
            <mxPoint x="20" y="195" as="sourcePoint" />
            <mxPoint x="180" y="120" as="targetPoint" />
            <Array as="points">
              <mxPoint x="100" y="165" />
            </Array>
          </mxGeometry>
        </mxCell>
        <mxCell id="UHj80bBRcelPe-L20sRG-32" value="" style="edgeStyle=elbowEdgeStyle;elbow=horizontal;endArrow=classic;html=1;curved=0;rounded=0;endSize=8;startSize=8;entryX=0;entryY=0.5;entryDx=0;entryDy=0;" parent="1" source="UHj80bBRcelPe-L20sRG-8" target="UHj80bBRcelPe-L20sRG-14" edge="1">
          <mxGeometry width="50" height="50" relative="1" as="geometry">
            <mxPoint x="90" y="220" as="sourcePoint" />
            <mxPoint x="140" y="170" as="targetPoint" />
          </mxGeometry>
        </mxCell>
        <mxCell id="UHj80bBRcelPe-L20sRG-37" value="" style="edgeStyle=segmentEdgeStyle;endArrow=classic;html=1;curved=0;rounded=0;endSize=8;startSize=8;" parent="1" edge="1">
          <mxGeometry width="50" height="50" relative="1" as="geometry">
            <mxPoint x="100" y="180" as="sourcePoint" />
            <mxPoint x="180" y="240" as="targetPoint" />
            <Array as="points">
              <mxPoint x="100" y="240" />
              <mxPoint x="180" y="240" />
            </Array>
          </mxGeometry>
        </mxCell>
        <mxCell id="UHj80bBRcelPe-L20sRG-38" value="" style="endArrow=classic;html=1;rounded=0;entryX=0;entryY=0.5;entryDx=0;entryDy=0;" parent="1" target="UHj80bBRcelPe-L20sRG-15" edge="1">
          <mxGeometry width="50" height="50" relative="1" as="geometry">
            <mxPoint x="20" y="385" as="sourcePoint" />
            <mxPoint x="70" y="340" as="targetPoint" />
          </mxGeometry>
        </mxCell>
        <mxCell id="UHj80bBRcelPe-L20sRG-39" value="" style="edgeStyle=elbowEdgeStyle;elbow=horizontal;endArrow=classic;html=1;curved=0;rounded=0;endSize=8;startSize=8;entryX=0;entryY=0.5;entryDx=0;entryDy=0;" parent="1" target="UHj80bBRcelPe-L20sRG-17" edge="1">
          <mxGeometry width="50" height="50" relative="1" as="geometry">
            <mxPoint x="100" y="390" as="sourcePoint" />
            <mxPoint x="160" y="340" as="targetPoint" />
            <Array as="points">
              <mxPoint x="100" y="450" />
            </Array>
          </mxGeometry>
        </mxCell>
        <mxCell id="UHj80bBRcelPe-L20sRG-40" value="" style="edgeStyle=segmentEdgeStyle;endArrow=classic;html=1;curved=0;rounded=0;endSize=8;startSize=8;" parent="1" edge="1">
          <mxGeometry width="50" height="50" relative="1" as="geometry">
            <mxPoint x="100" y="380" as="sourcePoint" />
            <mxPoint x="180" y="430" as="targetPoint" />
            <Array as="points">
              <mxPoint x="100" y="380" />
              <mxPoint x="100" y="430" />
            </Array>
          </mxGeometry>
        </mxCell>
        <mxCell id="UHj80bBRcelPe-L20sRG-41" value="Source" style="text;html=1;align=center;verticalAlign=middle;whiteSpace=wrap;rounded=0;fillColor=default;" parent="1" vertex="1">
          <mxGeometry x="-30" y="80" width="60" height="30" as="geometry" />
        </mxCell>
        <mxCell id="UHj80bBRcelPe-L20sRG-43" value="&lt;font style=&quot;color: light-dark(rgb(0, 0, 0), rgb(255, 0, 0)); font-size: 17px;&quot;&gt;&lt;b style=&quot;&quot;&gt;Bronze Layer&lt;/b&gt;&lt;/font&gt;" style="rounded=0;whiteSpace=wrap;html=1;fillColor=#fad7ac;strokeColor=#b46504;align=center;" parent="1" vertex="1">
          <mxGeometry x="160" y="60" width="160" height="30" as="geometry" />
        </mxCell>
        <mxCell id="UHj80bBRcelPe-L20sRG-44" value="&lt;h1&gt;Data Flow Diagram&lt;/h1&gt;" style="text;html=1;align=center;verticalAlign=middle;whiteSpace=wrap;rounded=0;fontFamily=Times New Roman;" parent="1" vertex="1">
          <mxGeometry x="-90" y="-10" width="220" height="30" as="geometry" />
        </mxCell>
        <mxCell id="C-VEYlkBxE4wwwfqTN62-1" value="" style="rounded=0;whiteSpace=wrap;html=1;fillColor=none;strokeColor=#666666;fontColor=#333333;" parent="1" vertex="1">
          <mxGeometry x="410" y="100" width="165" height="410" as="geometry" />
        </mxCell>
        <mxCell id="C-VEYlkBxE4wwwfqTN62-2" value="" style="rounded=1;whiteSpace=wrap;html=1;fillColor=#f5f5f5;strokeColor=none;fontColor=#333333;" parent="1" vertex="1">
          <mxGeometry x="435" y="130" width="120" height="30" as="geometry" />
        </mxCell>
        <mxCell id="C-VEYlkBxE4wwwfqTN62-3" value="" style="rounded=1;whiteSpace=wrap;html=1;fillColor=#f5f5f5;strokeColor=none;fontColor=#333333;" parent="1" vertex="1">
          <mxGeometry x="435" y="230" width="120" height="30" as="geometry" />
        </mxCell>
        <mxCell id="C-VEYlkBxE4wwwfqTN62-4" value="" style="rounded=1;whiteSpace=wrap;html=1;fillColor=#f5f5f5;strokeColor=none;fontColor=#333333;" parent="1" vertex="1">
          <mxGeometry x="435" y="180" width="120" height="30" as="geometry" />
        </mxCell>
        <mxCell id="C-VEYlkBxE4wwwfqTN62-5" value="" style="rounded=1;whiteSpace=wrap;html=1;fillColor=#f5f5f5;strokeColor=none;fontColor=#333333;" parent="1" vertex="1">
          <mxGeometry x="435" y="360" width="120" height="30" as="geometry" />
        </mxCell>
        <mxCell id="C-VEYlkBxE4wwwfqTN62-6" value="" style="rounded=1;whiteSpace=wrap;html=1;fillColor=#f5f5f5;strokeColor=none;fontColor=#333333;" parent="1" vertex="1">
          <mxGeometry x="435" y="400" width="120" height="30" as="geometry" />
        </mxCell>
        <mxCell id="C-VEYlkBxE4wwwfqTN62-7" value="" style="rounded=1;whiteSpace=wrap;html=1;fillColor=#f5f5f5;strokeColor=none;fontColor=#333333;" parent="1" vertex="1">
          <mxGeometry x="435" y="320" width="120" height="30" as="geometry" />
        </mxCell>
        <mxCell id="C-VEYlkBxE4wwwfqTN62-8" value="crm_prd_info" style="text;html=1;align=center;verticalAlign=middle;whiteSpace=wrap;rounded=0;fillColor=#f5f5f5;strokeColor=none;fontColor=#333333;" parent="1" vertex="1">
          <mxGeometry x="465" y="180" width="60" height="30" as="geometry" />
        </mxCell>
        <mxCell id="C-VEYlkBxE4wwwfqTN62-9" value="crm_cust_info" style="text;html=1;align=center;verticalAlign=middle;whiteSpace=wrap;rounded=0;fillColor=#f5f5f5;strokeColor=none;fontColor=#333333;" parent="1" vertex="1">
          <mxGeometry x="440" y="130" width="110" height="30" as="geometry" />
        </mxCell>
        <mxCell id="C-VEYlkBxE4wwwfqTN62-10" value="crm_sales_details" style="text;html=1;align=center;verticalAlign=middle;whiteSpace=wrap;rounded=0;fillColor=#f5f5f5;strokeColor=none;fontColor=#333333;" parent="1" vertex="1">
          <mxGeometry x="465" y="230" width="60" height="30" as="geometry" />
        </mxCell>
        <mxCell id="C-VEYlkBxE4wwwfqTN62-11" value="erp_px_cat_g1v2" style="text;html=1;align=center;verticalAlign=middle;whiteSpace=wrap;rounded=0;fillColor=#f5f5f5;strokeColor=none;fontColor=#333333;" parent="1" vertex="1">
          <mxGeometry x="465" y="400" width="60" height="30" as="geometry" />
        </mxCell>
        <mxCell id="C-VEYlkBxE4wwwfqTN62-12" value="erp_loc_a101" style="text;html=1;align=center;verticalAlign=middle;whiteSpace=wrap;rounded=0;fillColor=#f5f5f5;strokeColor=none;fontColor=#333333;" parent="1" vertex="1">
          <mxGeometry x="465" y="360" width="60" height="30" as="geometry" />
        </mxCell>
        <mxCell id="C-VEYlkBxE4wwwfqTN62-13" value="erp_cust_az12" style="text;html=1;align=center;verticalAlign=middle;whiteSpace=wrap;rounded=0;fillColor=#f5f5f5;strokeColor=none;fontColor=#333333;" parent="1" vertex="1">
          <mxGeometry x="470" y="320" width="60" height="30" as="geometry" />
        </mxCell>
        <mxCell id="C-VEYlkBxE4wwwfqTN62-14" style="edgeStyle=orthogonalEdgeStyle;rounded=0;orthogonalLoop=1;jettySize=auto;html=1;exitX=0.5;exitY=1;exitDx=0;exitDy=0;fillColor=#f5f5f5;strokeColor=none;" parent="1" source="C-VEYlkBxE4wwwfqTN62-11" target="C-VEYlkBxE4wwwfqTN62-11" edge="1">
          <mxGeometry relative="1" as="geometry" />
        </mxCell>
        <mxCell id="C-VEYlkBxE4wwwfqTN62-15" value="&lt;font style=&quot;color: light-dark(rgb(0, 0, 0), rgb(255, 0, 0)); font-size: 17px;&quot;&gt;&lt;b style=&quot;&quot;&gt;Silver Layer&lt;/b&gt;&lt;/font&gt;" style="rounded=0;whiteSpace=wrap;html=1;fillColor=#f5f5f5;strokeColor=#666666;align=center;fontColor=#333333;" parent="1" vertex="1">
          <mxGeometry x="405" y="60" width="170" height="30" as="geometry" />
        </mxCell>
        <mxCell id="C-VEYlkBxE4wwwfqTN62-25" style="edgeStyle=orthogonalEdgeStyle;rounded=0;orthogonalLoop=1;jettySize=auto;html=1;entryX=0.121;entryY=0.695;entryDx=0;entryDy=0;entryPerimeter=0;" parent="1" source="UHj80bBRcelPe-L20sRG-15" target="C-VEYlkBxE4wwwfqTN62-1" edge="1">
          <mxGeometry relative="1" as="geometry" />
        </mxCell>
        <mxCell id="-DVuVpMR-qsz2tuiCb-y-1" value="" style="rounded=0;whiteSpace=wrap;html=1;fillColor=none;strokeColor=#d6b656;" vertex="1" parent="1">
          <mxGeometry x="672.5" y="100" width="165" height="410" as="geometry" />
        </mxCell>
        <mxCell id="-DVuVpMR-qsz2tuiCb-y-2" value="" style="rounded=1;whiteSpace=wrap;html=1;fillColor=#fff2cc;strokeColor=#d6b656;" vertex="1" parent="1">
          <mxGeometry x="692.5" y="160" width="120" height="30" as="geometry" />
        </mxCell>
        <mxCell id="-DVuVpMR-qsz2tuiCb-y-3" value="" style="rounded=1;whiteSpace=wrap;html=1;fillColor=#fff2cc;strokeColor=#d6b656;" vertex="1" parent="1">
          <mxGeometry x="690" y="320" width="120" height="30" as="geometry" />
        </mxCell>
        <mxCell id="-DVuVpMR-qsz2tuiCb-y-4" value="" style="rounded=1;whiteSpace=wrap;html=1;fillColor=#ffe6cc;strokeColor=#d79b00;" vertex="1" parent="1">
          <mxGeometry x="695" y="240" width="120" height="30" as="geometry" />
        </mxCell>
        <mxCell id="-DVuVpMR-qsz2tuiCb-y-8" value="dim_product s" style="text;html=1;align=center;verticalAlign=middle;whiteSpace=wrap;rounded=0;fillColor=none;strokeColor=none;" vertex="1" parent="1">
          <mxGeometry x="712.5" y="240" width="85" height="30" as="geometry" />
        </mxCell>
        <mxCell id="-DVuVpMR-qsz2tuiCb-y-9" value="dim_customers" style="text;html=1;align=center;verticalAlign=middle;whiteSpace=wrap;rounded=0;fillColor=none;strokeColor=none;" vertex="1" parent="1">
          <mxGeometry x="697.5" y="160" width="110" height="30" as="geometry" />
        </mxCell>
        <mxCell id="-DVuVpMR-qsz2tuiCb-y-10" value="fact_sales" style="text;html=1;align=center;verticalAlign=middle;whiteSpace=wrap;rounded=0;fillColor=none;strokeColor=none;" vertex="1" parent="1">
          <mxGeometry x="718.75" y="320" width="67.5" height="30" as="geometry" />
        </mxCell>
        <mxCell id="-DVuVpMR-qsz2tuiCb-y-15" value="&lt;font style=&quot;color: light-dark(rgb(0, 0, 0), rgb(255, 0, 0)); font-size: 17px;&quot;&gt;&lt;b style=&quot;&quot;&gt;Gold Layer&lt;/b&gt;&lt;/font&gt;" style="rounded=0;whiteSpace=wrap;html=1;fillColor=#fff2cc;strokeColor=#d6b656;align=center;" vertex="1" parent="1">
          <mxGeometry x="667.5" y="60" width="170" height="30" as="geometry" />
        </mxCell>
        <mxCell id="-DVuVpMR-qsz2tuiCb-y-18" value="" style="endArrow=classic;html=1;rounded=0;entryX=0;entryY=0.5;entryDx=0;entryDy=0;jumpStyle=gap;" edge="1" parent="1" target="-DVuVpMR-qsz2tuiCb-y-2">
          <mxGeometry width="50" height="50" relative="1" as="geometry">
            <mxPoint x="550" y="150" as="sourcePoint" />
            <mxPoint x="600" y="100" as="targetPoint" />
          </mxGeometry>
        </mxCell>
        <mxCell id="-DVuVpMR-qsz2tuiCb-y-19" value="" style="endArrow=classic;html=1;rounded=0;entryX=0;entryY=0.5;entryDx=0;entryDy=0;jumpStyle=gap;" edge="1" parent="1" target="-DVuVpMR-qsz2tuiCb-y-2">
          <mxGeometry width="50" height="50" relative="1" as="geometry">
            <mxPoint x="550" y="335" as="sourcePoint" />
            <mxPoint x="693" y="360" as="targetPoint" />
          </mxGeometry>
        </mxCell>
        <mxCell id="-DVuVpMR-qsz2tuiCb-y-20" value="" style="endArrow=classic;html=1;rounded=0;entryX=0;entryY=0.5;entryDx=0;entryDy=0;" edge="1" parent="1" target="-DVuVpMR-qsz2tuiCb-y-3">
          <mxGeometry width="50" height="50" relative="1" as="geometry">
            <mxPoint x="540" y="245" as="sourcePoint" />
            <mxPoint x="683" y="270" as="targetPoint" />
          </mxGeometry>
        </mxCell>
        <mxCell id="-DVuVpMR-qsz2tuiCb-y-21" value="" style="endArrow=classic;html=1;rounded=0;entryX=0;entryY=0.5;entryDx=0;entryDy=0;jumpStyle=gap;" edge="1" parent="1" target="-DVuVpMR-qsz2tuiCb-y-4">
          <mxGeometry width="50" height="50" relative="1" as="geometry">
            <mxPoint x="552" y="195" as="sourcePoint" />
            <mxPoint x="695" y="220" as="targetPoint" />
          </mxGeometry>
        </mxCell>
        <mxCell id="-DVuVpMR-qsz2tuiCb-y-22" value="" style="endArrow=classic;html=1;rounded=0;entryX=0;entryY=0.25;entryDx=0;entryDy=0;jumpStyle=gap;" edge="1" parent="1" target="-DVuVpMR-qsz2tuiCb-y-2">
          <mxGeometry width="50" height="50" relative="1" as="geometry">
            <mxPoint x="547" y="375" as="sourcePoint" />
            <mxPoint x="690" y="400" as="targetPoint" />
          </mxGeometry>
        </mxCell>
        <mxCell id="-DVuVpMR-qsz2tuiCb-y-23" value="" style="endArrow=classic;html=1;rounded=0;entryX=0;entryY=0.75;entryDx=0;entryDy=0;jumpStyle=gap;" edge="1" parent="1" target="-DVuVpMR-qsz2tuiCb-y-4">
          <mxGeometry width="50" height="50" relative="1" as="geometry">
            <mxPoint x="550" y="415" as="sourcePoint" />
            <mxPoint x="690" y="250" as="targetPoint" />
          </mxGeometry>
        </mxCell>
      </root>
    </mxGraphModel>
  </diagram>
</mxfile>
